<svg id="svg" version="1.1" xmlns="http://www.w3.org/2000/svg" xmlns:xlink="http://www.w3.org/1999/xlink" width="400" height="400" viewBox="0, 0, 400,400"><g id="svgg"><path id="path0" d="M196.207 59.577 C 196.064 60.030,195.707 60.400,195.416 60.400 C 194.836 60.400,194.400 61.254,194.400 62.390 C 194.400 62.788,194.153 63.209,193.851 63.325 C 193.548 63.441,193.183 64.163,193.040 64.929 C 192.896 65.696,192.513 66.424,192.189 66.549 C 191.829 66.687,191.600 67.307,191.600 68.141 C 191.600 69.170,191.403 69.558,190.800 69.716 C 190.187 69.876,190.000 70.262,190.000 71.363 C 190.000 72.533,189.852 72.800,189.200 72.800 C 188.533 72.800,188.400 73.067,188.400 74.400 C 188.400 75.733,188.267 76.000,187.600 76.000 C 186.948 76.000,186.800 76.267,186.800 77.437 C 186.800 78.538,186.613 78.924,186.000 79.084 C 185.403 79.240,185.200 79.630,185.200 80.620 C 185.200 81.595,184.988 82.013,184.400 82.200 C 183.805 82.389,183.600 82.805,183.600 83.827 C 183.600 84.734,183.411 85.200,183.043 85.200 C 182.398 85.200,182.000 86.052,182.000 87.433 C 182.000 88.022,181.768 88.400,181.405 88.400 C 181.020 88.400,180.719 88.965,180.554 90.000 C 180.401 90.957,180.079 91.600,179.754 91.600 C 179.428 91.600,179.107 92.243,178.954 93.200 C 178.804 94.134,178.477 94.800,178.167 94.800 C 177.875 94.800,177.515 95.444,177.368 96.232 C 177.220 97.019,176.869 97.752,176.589 97.860 C 176.308 97.967,175.966 98.656,175.828 99.389 C 175.691 100.123,175.313 100.824,174.989 100.949 C 174.629 101.087,174.400 101.707,174.400 102.541 C 174.400 103.570,174.203 103.958,173.600 104.116 C 172.994 104.275,172.800 104.662,172.800 105.716 C 172.800 106.770,172.606 107.157,172.000 107.316 C 171.394 107.475,171.200 107.862,171.200 108.916 C 171.200 109.970,171.006 110.357,170.400 110.516 C 169.787 110.676,169.600 111.062,169.600 112.163 C 169.600 113.125,169.416 113.600,169.043 113.600 C 168.448 113.600,168.000 114.435,168.000 115.544 C 168.000 115.917,167.640 116.530,167.200 116.907 C 166.760 117.284,166.400 118.025,166.400 118.553 C 166.400 119.082,166.140 119.614,165.822 119.736 C 165.504 119.858,165.127 120.585,164.983 121.351 C 164.839 122.118,164.479 122.838,164.183 122.951 C 163.887 123.065,163.527 123.785,163.383 124.551 C 163.239 125.318,162.879 126.038,162.583 126.151 C 162.287 126.265,161.927 126.985,161.783 127.751 C 161.639 128.518,161.286 129.235,160.998 129.345 C 160.711 129.456,160.347 130.133,160.189 130.850 C 160.031 131.568,159.654 132.403,159.351 132.706 C 159.048 133.009,158.800 133.654,158.800 134.140 C 158.800 134.625,158.440 135.330,158.000 135.707 C 157.560 136.084,157.200 136.804,157.200 137.307 C 157.200 137.810,156.840 138.530,156.400 138.907 C 155.960 139.284,155.600 139.954,155.600 140.396 C 155.600 140.838,155.240 141.560,154.800 142.000 C 154.360 142.440,154.000 143.160,154.000 143.600 C 154.000 144.040,153.640 144.760,153.200 145.200 C 152.760 145.640,152.400 146.360,152.400 146.800 C 152.400 147.240,152.040 147.960,151.600 148.400 C 151.160 148.840,150.800 149.560,150.800 150.000 C 150.800 150.440,150.440 151.160,150.000 151.600 C 149.560 152.040,149.200 152.768,149.200 153.217 C 149.200 153.666,148.840 154.420,148.400 154.892 C 147.960 155.364,147.600 156.084,147.600 156.492 C 147.600 156.900,147.240 157.620,146.800 158.092 C 146.360 158.564,146.000 159.284,146.000 159.692 C 146.000 160.100,145.640 160.820,145.200 161.292 C 144.760 161.764,144.400 162.651,144.400 163.261 C 144.400 163.962,144.105 164.530,143.600 164.800 C 143.073 165.082,142.800 165.638,142.800 166.427 C 142.800 167.123,142.549 167.722,142.200 167.855 C 141.870 167.982,141.600 168.567,141.600 169.154 C 141.600 169.765,141.257 170.471,140.800 170.800 C 140.359 171.118,140.000 171.835,140.000 172.400 C 140.000 172.965,139.641 173.682,139.200 174.000 C 138.738 174.333,138.400 175.035,138.400 175.661 C 138.400 176.395,138.141 176.828,137.600 177.000 C 136.979 177.197,136.800 177.605,136.800 178.827 C 136.800 180.133,136.664 180.400,136.000 180.400 C 135.333 180.400,135.200 180.667,135.200 182.000 C 135.200 183.333,135.067 183.600,134.400 183.600 C 133.733 183.600,133.600 183.867,133.600 185.200 C 133.600 186.533,133.467 186.800,132.800 186.800 C 132.133 186.800,132.000 187.067,132.000 188.400 C 132.000 189.733,131.867 190.000,131.200 190.000 C 130.555 190.000,130.400 190.267,130.400 191.373 C 130.400 192.395,130.195 192.811,129.600 193.000 C 129.012 193.187,128.800 193.605,128.800 194.580 C 128.800 195.570,128.597 195.960,128.000 196.116 C 127.387 196.276,127.200 196.662,127.200 197.763 C 127.200 198.725,127.016 199.200,126.643 199.200 C 125.998 199.200,125.600 200.052,125.600 201.433 C 125.600 202.026,125.368 202.400,125.000 202.400 C 124.567 202.400,124.400 202.844,124.400 204.000 C 124.400 205.333,124.267 205.600,123.600 205.600 C 122.933 205.600,122.800 205.867,122.800 207.200 C 122.800 208.533,122.667 208.800,122.000 208.800 C 121.352 208.800,121.200 209.067,121.200 210.200 C 121.200 211.333,121.048 211.600,120.400 211.600 C 119.733 211.600,119.600 211.867,119.600 213.200 C 119.600 214.533,119.467 214.800,118.800 214.800 C 118.133 214.800,118.000 215.067,118.000 216.400 C 118.000 217.733,117.867 218.000,117.200 218.000 C 116.533 218.000,116.400 218.267,116.400 219.600 C 116.400 220.933,116.267 221.200,115.600 221.200 C 114.933 221.200,114.800 221.467,114.800 222.800 C 114.800 224.133,114.667 224.400,114.000 224.400 C 113.358 224.400,113.200 224.667,113.200 225.753 C 113.200 226.770,113.001 227.159,112.400 227.316 C 111.794 227.475,111.600 227.862,111.600 228.916 C 111.600 229.970,111.406 230.357,110.800 230.516 C 110.004 230.724,110.000 230.528,110.000 195.570 L 110.000 160.415 108.985 160.161 C 107.325 159.744,103.178 160.189,102.774 160.828 C 102.572 161.148,102.410 169.719,102.406 180.300 C 102.401 197.324,102.337 199.200,101.763 199.200 C 101.412 199.200,101.031 199.560,100.916 200.000 C 100.801 200.440,100.441 200.800,100.116 200.800 C 99.791 200.800,99.431 201.160,99.316 201.600 C 99.201 202.040,98.841 202.400,98.516 202.400 C 98.191 202.400,97.835 202.743,97.726 203.163 C 97.616 203.583,97.183 204.016,96.763 204.126 C 96.343 204.235,96.000 204.612,96.000 204.963 C 96.000 205.313,95.742 205.600,95.427 205.600 C 95.112 205.600,94.740 205.960,94.600 206.400 C 94.460 206.840,94.088 207.200,93.773 207.200 C 93.458 207.200,93.200 207.487,93.200 207.837 C 93.200 208.188,92.840 208.569,92.400 208.684 C 91.960 208.799,91.600 209.159,91.600 209.484 C 91.600 209.809,91.240 210.169,90.800 210.284 C 90.360 210.399,90.000 210.721,90.000 211.000 C 90.000 211.279,89.640 211.601,89.200 211.716 C 88.760 211.831,88.400 212.191,88.400 212.516 C 88.400 212.841,88.040 213.201,87.600 213.316 C 87.160 213.431,86.800 213.791,86.800 214.116 C 86.800 214.441,86.440 214.801,86.000 214.916 C 85.560 215.031,85.200 215.391,85.200 215.716 C 85.200 216.041,84.840 216.401,84.400 216.516 C 83.960 216.631,83.600 216.991,83.600 217.316 C 83.600 217.641,83.240 218.001,82.800 218.116 C 82.360 218.231,82.000 218.591,82.000 218.916 C 82.000 219.241,81.640 219.601,81.200 219.716 C 80.760 219.831,80.400 220.191,80.400 220.516 C 80.400 220.841,80.040 221.201,79.600 221.316 C 79.160 221.431,78.800 221.812,78.800 222.163 C 78.800 222.513,78.542 222.800,78.227 222.800 C 77.912 222.800,77.540 223.160,77.400 223.600 C 77.260 224.040,76.888 224.400,76.573 224.400 C 76.258 224.400,76.000 224.687,76.000 225.037 C 76.000 225.388,75.640 225.769,75.200 225.884 C 74.760 225.999,74.400 226.330,74.400 226.620 C 74.400 226.909,74.040 227.260,73.600 227.400 C 73.160 227.540,72.800 227.891,72.800 228.180 C 72.800 228.470,72.440 228.801,72.000 228.916 C 71.560 229.031,71.200 229.391,71.200 229.716 C 71.200 230.041,70.840 230.401,70.400 230.516 C 69.960 230.631,69.600 230.991,69.600 231.316 C 69.600 231.641,69.240 232.001,68.800 232.116 C 68.360 232.231,68.000 232.591,68.000 232.916 C 68.000 233.241,67.640 233.601,67.200 233.716 C 66.760 233.831,66.400 234.191,66.400 234.516 C 66.400 234.841,66.040 235.201,65.600 235.316 C 65.160 235.431,64.800 235.791,64.800 236.116 C 64.800 236.441,64.440 236.801,64.000 236.916 C 63.560 237.031,63.200 237.391,63.200 237.716 C 63.200 238.041,62.840 238.401,62.400 238.516 C 61.960 238.631,61.600 239.012,61.600 239.363 C 61.600 239.713,61.330 240.000,61.000 240.000 C 60.670 240.000,60.400 240.287,60.400 240.637 C 60.400 240.988,60.040 241.369,59.600 241.484 C 59.160 241.599,58.800 241.959,58.800 242.284 C 58.800 242.609,58.440 242.969,58.000 243.084 C 57.560 243.199,57.200 243.530,57.200 243.820 C 57.200 244.109,56.840 244.460,56.400 244.600 C 55.960 244.740,55.600 245.091,55.600 245.380 C 55.600 245.670,55.240 246.001,54.800 246.116 C 54.360 246.231,54.000 246.591,54.000 246.916 C 54.000 247.241,53.640 247.601,53.200 247.716 C 52.760 247.831,52.400 248.191,52.400 248.516 C 52.400 248.841,52.040 249.201,51.600 249.316 C 51.160 249.431,50.800 249.791,50.800 250.116 C 50.800 250.441,50.440 250.801,50.000 250.916 C 49.560 251.031,49.200 251.391,49.200 251.716 C 49.200 252.041,48.840 252.401,48.400 252.516 C 47.960 252.631,47.600 252.991,47.600 253.316 C 47.600 253.641,47.240 254.001,46.800 254.116 C 46.360 254.231,46.000 254.612,46.000 254.963 C 46.000 255.313,45.742 255.600,45.427 255.600 C 45.112 255.600,44.740 255.960,44.600 256.400 C 44.460 256.840,44.109 257.200,43.820 257.200 C 43.530 257.200,43.199 257.560,43.084 258.000 C 42.969 258.440,42.609 258.800,42.284 258.800 C 41.959 258.800,41.599 259.160,41.484 259.600 C 41.369 260.040,40.988 260.400,40.637 260.400 C 40.287 260.400,40.000 260.649,40.000 260.953 C 40.000 261.258,39.640 261.601,39.200 261.716 C 38.760 261.831,38.400 262.212,38.400 262.563 C 38.400 262.913,38.113 263.200,37.763 263.200 C 37.412 263.200,37.031 263.560,36.916 264.000 C 36.801 264.440,36.441 264.800,36.116 264.800 C 35.791 264.800,35.431 265.160,35.316 265.600 C 35.201 266.040,34.841 266.400,34.516 266.400 C 34.191 266.400,33.831 266.760,33.716 267.200 C 33.601 267.640,33.241 268.000,32.916 268.000 C 32.591 268.000,32.231 268.360,32.116 268.800 C 32.001 269.240,31.641 269.600,31.316 269.600 C 30.991 269.600,30.631 269.960,30.516 270.400 C 30.401 270.840,30.041 271.200,29.716 271.200 C 29.391 271.200,29.031 271.560,28.916 272.000 C 28.801 272.440,28.470 272.800,28.180 272.800 C 27.891 272.800,27.540 273.160,27.400 273.600 C 27.260 274.040,26.909 274.400,26.620 274.400 C 26.330 274.400,25.999 274.760,25.884 275.200 C 25.769 275.640,25.388 276.000,25.037 276.000 C 24.687 276.000,24.400 276.258,24.400 276.573 C 24.400 276.888,24.040 277.260,23.600 277.400 C 23.160 277.540,22.800 277.912,22.800 278.227 C 22.800 278.542,22.513 278.800,22.163 278.800 C 21.812 278.800,21.435 279.143,21.326 279.563 C 21.216 279.983,20.783 280.416,20.363 280.526 C 19.633 280.716,19.600 281.262,19.600 293.163 L 19.600 305.600 22.600 305.600 C 25.298 305.600,25.600 305.522,25.600 304.827 C 25.600 304.402,25.960 303.940,26.400 303.800 C 27.169 303.556,27.200 303.195,27.200 294.373 C 27.200 285.467,27.223 285.200,28.000 285.200 C 28.533 285.200,28.800 284.933,28.800 284.400 C 28.800 283.867,29.067 283.600,29.600 283.600 C 30.133 283.600,30.400 283.333,30.400 282.800 C 30.400 282.267,30.667 282.000,31.200 282.000 C 31.733 282.000,32.000 281.733,32.000 281.200 C 32.000 280.667,32.267 280.400,32.800 280.400 C 33.333 280.400,33.600 280.133,33.600 279.600 C 33.600 279.067,33.867 278.800,34.400 278.800 C 34.933 278.800,35.200 278.533,35.200 278.000 C 35.200 277.467,35.467 277.200,36.000 277.200 C 36.533 277.200,36.800 276.933,36.800 276.400 C 36.800 275.867,37.067 275.600,37.600 275.600 C 38.040 275.600,38.400 275.342,38.400 275.027 C 38.400 274.712,38.760 274.340,39.200 274.200 C 39.640 274.060,40.000 273.688,40.000 273.373 C 40.000 273.058,40.270 272.800,40.600 272.800 C 40.933 272.800,41.200 272.444,41.200 272.000 C 41.200 271.467,41.467 271.200,42.000 271.200 C 42.533 271.200,42.800 270.933,42.800 270.400 C 42.800 269.867,43.067 269.600,43.600 269.600 C 44.133 269.600,44.400 269.333,44.400 268.800 C 44.400 268.267,44.667 268.000,45.200 268.000 C 45.733 268.000,46.000 267.733,46.000 267.200 C 46.000 266.667,46.267 266.400,46.800 266.400 C 47.333 266.400,47.600 266.133,47.600 265.600 C 47.600 265.067,47.867 264.800,48.400 264.800 C 48.933 264.800,49.200 264.533,49.200 264.000 C 49.200 263.467,49.467 263.200,50.000 263.200 C 50.533 263.200,50.800 262.933,50.800 262.400 C 50.800 261.867,51.067 261.600,51.600 261.600 C 52.133 261.600,52.400 261.333,52.400 260.800 C 52.400 260.267,52.667 260.000,53.200 260.000 C 53.733 260.000,54.000 259.733,54.000 259.200 C 54.000 258.667,54.267 258.400,54.800 258.400 C 55.240 258.400,55.600 258.151,55.600 257.847 C 55.600 257.542,55.960 257.199,56.400 257.084 C 56.840 256.969,57.200 256.588,57.200 256.237 C 57.200 255.887,57.470 255.600,57.800 255.600 C 58.133 255.600,58.400 255.244,58.400 254.800 C 58.400 254.267,58.667 254.000,59.200 254.000 C 59.733 254.000,60.000 253.733,60.000 253.200 C 60.000 252.667,60.267 252.400,60.800 252.400 C 61.333 252.400,61.600 252.133,61.600 251.600 C 61.600 251.067,61.867 250.800,62.400 250.800 C 62.933 250.800,63.200 250.533,63.200 250.000 C 63.200 249.467,63.467 249.200,64.000 249.200 C 64.533 249.200,64.800 248.933,64.800 248.400 C 64.800 247.867,65.067 247.600,65.600 247.600 C 66.133 247.600,66.400 247.333,66.400 246.800 C 66.400 246.267,66.667 246.000,67.200 246.000 C 67.733 246.000,68.000 245.733,68.000 245.200 C 68.000 244.667,68.267 244.400,68.800 244.400 C 69.333 244.400,69.600 244.133,69.600 243.600 C 69.600 243.067,69.867 242.800,70.400 242.800 C 70.933 242.800,71.200 242.533,71.200 242.000 C 71.200 241.467,71.467 241.200,72.000 241.200 C 72.444 241.200,72.800 240.933,72.800 240.600 C 72.800 240.270,73.058 240.000,73.373 240.000 C 73.688 240.000,74.060 239.640,74.200 239.200 C 74.340 238.760,74.712 238.400,75.027 238.400 C 75.342 238.400,75.600 238.040,75.600 237.600 C 75.600 237.067,75.867 236.800,76.400 236.800 C 76.933 236.800,77.200 236.533,77.200 236.000 C 77.200 235.467,77.467 235.200,78.000 235.200 C 78.533 235.200,78.800 234.933,78.800 234.400 C 78.800 233.867,79.067 233.600,79.600 233.600 C 80.133 233.600,80.400 233.333,80.400 232.800 C 80.400 232.267,80.667 232.000,81.200 232.000 C 81.733 232.000,82.000 231.733,82.000 231.200 C 82.000 230.667,82.267 230.400,82.800 230.400 C 83.333 230.400,83.600 230.133,83.600 229.600 C 83.600 229.067,83.867 228.800,84.400 228.800 C 84.933 228.800,85.200 228.533,85.200 228.000 C 85.200 227.467,85.467 227.200,86.000 227.200 C 86.533 227.200,86.800 226.933,86.800 226.400 C 86.800 225.867,87.067 225.600,87.600 225.600 C 88.040 225.600,88.400 225.342,88.400 225.027 C 88.400 224.712,88.760 224.340,89.200 224.200 C 89.640 224.060,90.000 223.688,90.000 223.373 C 90.000 223.058,90.270 222.800,90.600 222.800 C 90.933 222.800,91.200 222.444,91.200 222.000 C 91.200 221.467,91.467 221.200,92.000 221.200 C 92.533 221.200,92.800 220.933,92.800 220.400 C 92.800 219.867,93.067 219.600,93.600 219.600 C 94.133 219.600,94.400 219.333,94.400 218.800 C 94.400 218.267,94.667 218.000,95.200 218.000 C 95.733 218.000,96.000 217.733,96.000 217.200 C 96.000 216.667,96.267 216.400,96.800 216.400 C 97.333 216.400,97.600 216.133,97.600 215.600 C 97.600 215.067,97.867 214.800,98.400 214.800 C 98.933 214.800,99.200 214.533,99.200 214.000 C 99.200 213.467,99.467 213.200,100.000 213.200 C 100.533 213.200,100.800 212.933,100.800 212.400 C 100.800 211.867,101.067 211.600,101.600 211.600 C 102.389 211.600,102.400 211.867,102.400 230.400 C 102.400 248.933,102.389 249.200,101.600 249.200 C 100.933 249.200,100.800 249.467,100.800 250.800 C 100.800 252.133,100.667 252.400,100.000 252.400 C 99.333 252.400,99.200 252.667,99.200 254.000 C 99.200 255.333,99.067 255.600,98.400 255.600 C 97.733 255.600,97.600 255.867,97.600 257.200 C 97.600 258.533,97.467 258.800,96.800 258.800 C 96.158 258.800,96.000 259.067,96.000 260.153 C 96.000 261.170,95.801 261.559,95.200 261.716 C 94.587 261.876,94.400 262.262,94.400 263.363 C 94.400 264.325,94.216 264.800,93.843 264.800 C 93.198 264.800,92.800 265.652,92.800 267.033 C 92.800 267.626,92.568 268.000,92.200 268.000 C 91.767 268.000,91.600 268.444,91.600 269.600 C 91.600 270.933,91.467 271.200,90.800 271.200 C 90.133 271.200,90.000 271.467,90.000 272.800 C 90.000 274.133,89.867 274.400,89.200 274.400 C 88.558 274.400,88.400 274.667,88.400 275.753 C 88.400 276.770,88.201 277.159,87.600 277.316 C 86.994 277.475,86.800 277.862,86.800 278.916 C 86.800 279.970,86.606 280.357,86.000 280.516 C 85.387 280.676,85.200 281.062,85.200 282.163 C 85.200 283.333,85.052 283.600,84.400 283.600 C 83.733 283.600,83.600 283.867,83.600 285.200 C 83.600 286.533,83.467 286.800,82.800 286.800 C 82.133 286.800,82.000 287.067,82.000 288.400 C 82.000 289.733,81.867 290.000,81.200 290.000 C 80.548 290.000,80.400 290.267,80.400 291.437 C 80.400 292.538,80.213 292.924,79.600 293.084 C 78.999 293.241,78.800 293.630,78.800 294.647 C 78.800 295.537,78.609 296.000,78.243 296.000 C 77.598 296.000,77.200 296.852,77.200 298.233 C 77.200 298.799,76.966 299.200,76.635 299.200 C 76.288 299.200,75.966 299.816,75.800 300.800 L 75.530 302.400 60.927 302.400 C 46.662 302.400,46.320 302.418,46.116 303.200 C 46.000 303.643,45.570 304.000,45.153 304.000 C 43.935 304.000,43.981 339.565,45.200 339.884 C 45.640 339.999,46.000 340.342,46.000 340.647 C 46.000 341.056,46.623 341.200,48.400 341.200 C 50.177 341.200,50.800 341.056,50.800 340.647 C 50.800 340.342,51.160 339.999,51.600 339.884 C 52.382 339.680,52.400 339.338,52.400 324.837 L 52.400 310.000 200.800 310.000 L 349.200 310.000 349.200 324.967 C 349.200 333.199,349.309 340.219,349.443 340.567 C 349.847 341.621,355.204 341.473,355.484 340.400 C 355.599 339.960,355.920 339.600,356.197 339.600 C 357.077 339.600,357.200 337.438,357.200 322.000 C 357.200 305.975,357.092 304.402,355.976 304.110 C 355.590 304.009,355.184 303.583,355.074 303.163 C 354.883 302.430,354.302 302.400,340.237 302.400 C 325.867 302.400,325.600 302.385,325.600 301.600 C 325.600 301.160,325.353 300.800,325.051 300.800 C 324.720 300.800,324.401 300.165,324.246 299.200 C 324.081 298.165,323.780 297.600,323.395 297.600 C 322.979 297.600,322.800 297.169,322.800 296.163 C 322.800 295.062,322.613 294.676,322.000 294.516 C 321.399 294.359,321.200 293.970,321.200 292.953 C 321.200 291.867,321.042 291.600,320.400 291.600 C 319.733 291.600,319.600 291.333,319.600 290.000 C 319.600 288.667,319.467 288.400,318.800 288.400 C 318.133 288.400,318.000 288.133,318.000 286.800 C 318.000 285.467,317.867 285.200,317.200 285.200 C 316.533 285.200,316.400 284.933,316.400 283.600 C 316.400 282.267,316.267 282.000,315.600 282.000 C 314.948 282.000,314.800 281.733,314.800 280.563 C 314.800 279.462,314.613 279.076,314.000 278.916 C 313.406 278.761,313.200 278.370,313.200 277.400 C 313.200 276.430,312.994 276.039,312.400 275.884 C 311.787 275.724,311.600 275.338,311.600 274.237 C 311.600 273.067,311.452 272.800,310.800 272.800 C 310.133 272.800,310.000 272.533,310.000 271.200 C 310.000 269.867,309.867 269.600,309.200 269.600 C 308.533 269.600,308.400 269.333,308.400 268.000 C 308.400 266.844,308.233 266.400,307.800 266.400 C 307.432 266.400,307.200 266.026,307.200 265.433 C 307.200 264.052,306.802 263.200,306.157 263.200 C 305.789 263.200,305.600 262.734,305.600 261.827 C 305.600 260.805,305.395 260.389,304.800 260.200 C 304.205 260.011,304.000 259.595,304.000 258.573 C 304.000 257.467,303.845 257.200,303.200 257.200 C 302.533 257.200,302.400 256.933,302.400 255.600 C 302.400 254.267,302.267 254.000,301.600 254.000 C 300.933 254.000,300.800 253.733,300.800 252.400 C 300.800 251.067,300.667 250.800,300.000 250.800 C 299.333 250.800,299.200 250.533,299.200 249.200 C 299.200 247.867,299.067 247.600,298.400 247.600 C 297.612 247.600,297.600 247.333,297.600 229.600 C 297.600 211.867,297.612 211.600,298.400 211.600 C 298.933 211.600,299.200 211.867,299.200 212.400 C 299.200 212.933,299.467 213.200,300.000 213.200 C 300.533 213.200,300.800 213.467,300.800 214.000 C 300.800 214.533,301.067 214.800,301.600 214.800 C 302.133 214.800,302.400 215.067,302.400 215.600 C 302.400 216.133,302.667 216.400,303.200 216.400 C 303.733 216.400,304.000 216.667,304.000 217.200 C 304.000 217.733,304.267 218.000,304.800 218.000 C 305.333 218.000,305.600 218.267,305.600 218.800 C 305.600 219.333,305.867 219.600,306.400 219.600 C 306.933 219.600,307.200 219.867,307.200 220.400 C 307.200 220.933,307.467 221.200,308.000 221.200 C 308.533 221.200,308.800 221.467,308.800 222.000 C 308.800 222.444,309.067 222.800,309.400 222.800 C 309.730 222.800,310.000 223.058,310.000 223.373 C 310.000 223.688,310.360 224.060,310.800 224.200 C 311.240 224.340,311.600 224.712,311.600 225.027 C 311.600 225.342,311.960 225.600,312.400 225.600 C 312.933 225.600,313.200 225.867,313.200 226.400 C 313.200 226.933,313.467 227.200,314.000 227.200 C 314.533 227.200,314.800 227.467,314.800 228.000 C 314.800 228.533,315.067 228.800,315.600 228.800 C 316.133 228.800,316.400 229.067,316.400 229.600 C 316.400 230.133,316.667 230.400,317.200 230.400 C 317.733 230.400,318.000 230.667,318.000 231.200 C 318.000 231.733,318.267 232.000,318.800 232.000 C 319.333 232.000,319.600 232.267,319.600 232.800 C 319.600 233.333,319.867 233.600,320.400 233.600 C 320.933 233.600,321.200 233.867,321.200 234.400 C 321.200 234.933,321.467 235.200,322.000 235.200 C 322.533 235.200,322.800 235.467,322.800 236.000 C 322.800 236.533,323.067 236.800,323.600 236.800 C 324.133 236.800,324.400 237.067,324.400 237.600 C 324.400 238.040,324.658 238.400,324.973 238.400 C 325.288 238.400,325.660 238.760,325.800 239.200 C 325.940 239.640,326.312 240.000,326.627 240.000 C 326.942 240.000,327.200 240.270,327.200 240.600 C 327.200 240.933,327.556 241.200,328.000 241.200 C 328.533 241.200,328.800 241.467,328.800 242.000 C 328.800 242.533,329.067 242.800,329.600 242.800 C 330.133 242.800,330.400 243.067,330.400 243.600 C 330.400 244.133,330.667 244.400,331.200 244.400 C 331.733 244.400,332.000 244.667,332.000 245.200 C 332.000 245.733,332.267 246.000,332.800 246.000 C 333.333 246.000,333.600 246.267,333.600 246.800 C 333.600 247.333,333.867 247.600,334.400 247.600 C 334.933 247.600,335.200 247.867,335.200 248.400 C 335.200 248.933,335.467 249.200,336.000 249.200 C 336.533 249.200,336.800 249.467,336.800 250.000 C 336.800 250.533,337.067 250.800,337.600 250.800 C 338.133 250.800,338.400 251.067,338.400 251.600 C 338.400 252.133,338.667 252.400,339.200 252.400 C 339.733 252.400,340.000 252.667,340.000 253.200 C 340.000 253.733,340.267 254.000,340.800 254.000 C 341.333 254.000,341.600 254.267,341.600 254.800 C 341.600 255.240,341.849 255.600,342.153 255.600 C 342.458 255.600,342.801 255.960,342.916 256.400 C 343.031 256.840,343.412 257.200,343.763 257.200 C 344.113 257.200,344.400 257.470,344.400 257.800 C 344.400 258.133,344.756 258.400,345.200 258.400 C 345.733 258.400,346.000 258.667,346.000 259.200 C 346.000 259.733,346.267 260.000,346.800 260.000 C 347.333 260.000,347.600 260.267,347.600 260.800 C 347.600 261.333,347.867 261.600,348.400 261.600 C 348.933 261.600,349.200 261.867,349.200 262.400 C 349.200 262.933,349.467 263.200,350.000 263.200 C 350.533 263.200,350.800 263.467,350.800 264.000 C 350.800 264.533,351.067 264.800,351.600 264.800 C 352.133 264.800,352.400 265.067,352.400 265.600 C 352.400 266.133,352.667 266.400,353.200 266.400 C 353.733 266.400,354.000 266.667,354.000 267.200 C 354.000 267.733,354.267 268.000,354.800 268.000 C 355.333 268.000,355.600 268.267,355.600 268.800 C 355.600 269.333,355.867 269.600,356.400 269.600 C 356.933 269.600,357.200 269.867,357.200 270.400 C 357.200 270.933,357.467 271.200,358.000 271.200 C 358.533 271.200,358.800 271.467,358.800 272.000 C 358.800 272.444,359.067 272.800,359.400 272.800 C 359.730 272.800,360.000 273.058,360.000 273.373 C 360.000 273.688,360.360 274.060,360.800 274.200 C 361.240 274.340,361.600 274.712,361.600 275.027 C 361.600 275.342,361.960 275.600,362.400 275.600 C 362.933 275.600,363.200 275.867,363.200 276.400 C 363.200 276.933,363.467 277.200,364.000 277.200 C 364.533 277.200,364.800 277.467,364.800 278.000 C 364.800 278.533,365.067 278.800,365.600 278.800 C 366.133 278.800,366.400 279.067,366.400 279.600 C 366.400 280.133,366.667 280.400,367.200 280.400 C 367.733 280.400,368.000 280.667,368.000 281.200 C 368.000 281.733,368.267 282.000,368.800 282.000 C 369.333 282.000,369.600 282.267,369.600 282.800 C 369.600 283.333,369.867 283.600,370.400 283.600 C 370.933 283.600,371.200 283.867,371.200 284.400 C 371.200 284.933,371.467 285.200,372.000 285.200 C 372.777 285.200,372.800 285.467,372.800 294.437 C 372.800 303.338,372.829 303.683,373.600 303.884 C 374.043 304.000,374.400 304.430,374.400 304.847 C 374.400 305.517,374.729 305.600,377.400 305.600 L 380.400 305.600 380.400 293.163 C 380.400 281.262,380.367 280.716,379.637 280.526 C 379.217 280.416,378.784 279.983,378.674 279.563 C 378.565 279.143,378.188 278.800,377.837 278.800 C 377.487 278.800,377.200 278.542,377.200 278.227 C 377.200 277.912,376.840 277.540,376.400 277.400 C 375.960 277.260,375.600 276.888,375.600 276.573 C 375.600 276.258,375.313 276.000,374.963 276.000 C 374.612 276.000,374.231 275.640,374.116 275.200 C 374.001 274.760,373.670 274.400,373.380 274.400 C 373.091 274.400,372.740 274.040,372.600 273.600 C 372.460 273.160,372.109 272.800,371.820 272.800 C 371.530 272.800,371.199 272.440,371.084 272.000 C 370.969 271.560,370.609 271.200,370.284 271.200 C 369.959 271.200,369.599 270.840,369.484 270.400 C 369.369 269.960,369.009 269.600,368.684 269.600 C 368.359 269.600,367.999 269.240,367.884 268.800 C 367.769 268.360,367.409 268.000,367.084 268.000 C 366.759 268.000,366.399 267.640,366.284 267.200 C 366.169 266.760,365.809 266.400,365.484 266.400 C 365.159 266.400,364.799 266.040,364.684 265.600 C 364.569 265.160,364.209 264.800,363.884 264.800 C 363.559 264.800,363.199 264.440,363.084 264.000 C 362.969 263.560,362.609 263.200,362.284 263.200 C 361.959 263.200,361.599 262.840,361.484 262.400 C 361.369 261.960,360.988 261.600,360.637 261.600 C 360.287 261.600,360.000 261.351,360.000 261.047 C 360.000 260.742,359.640 260.399,359.200 260.284 C 358.760 260.169,358.400 259.809,358.400 259.484 C 358.400 259.159,358.040 258.799,357.600 258.684 C 357.160 258.569,356.800 258.188,356.800 257.837 C 356.800 257.487,356.551 257.200,356.247 257.200 C 355.942 257.200,355.599 256.840,355.484 256.400 C 355.369 255.960,355.009 255.600,354.684 255.600 C 354.359 255.600,353.999 255.240,353.884 254.800 C 353.769 254.360,353.409 254.000,353.084 254.000 C 352.759 254.000,352.399 253.640,352.284 253.200 C 352.169 252.760,351.809 252.400,351.484 252.400 C 351.159 252.400,350.799 252.040,350.684 251.600 C 350.569 251.160,350.209 250.800,349.884 250.800 C 349.559 250.800,349.199 250.440,349.084 250.000 C 348.969 249.560,348.609 249.200,348.284 249.200 C 347.959 249.200,347.599 248.840,347.484 248.400 C 347.369 247.960,347.009 247.600,346.684 247.600 C 346.359 247.600,345.999 247.240,345.884 246.800 C 345.769 246.360,345.388 246.000,345.037 246.000 C 344.687 246.000,344.400 245.742,344.400 245.427 C 344.400 245.112,344.040 244.740,343.600 244.600 C 343.160 244.460,342.800 244.109,342.800 243.820 C 342.800 243.530,342.440 243.199,342.000 243.084 C 341.560 242.969,341.200 242.588,341.200 242.237 C 341.200 241.887,340.942 241.600,340.627 241.600 C 340.312 241.600,339.940 241.240,339.800 240.800 C 339.660 240.360,339.288 240.000,338.973 240.000 C 338.658 240.000,338.400 239.713,338.400 239.363 C 338.400 239.012,338.040 238.631,337.600 238.516 C 337.160 238.401,336.800 238.041,336.800 237.716 C 336.800 237.391,336.440 237.031,336.000 236.916 C 335.560 236.801,335.200 236.441,335.200 236.116 C 335.200 235.791,334.840 235.431,334.400 235.316 C 333.960 235.201,333.600 234.841,333.600 234.516 C 333.600 234.191,333.240 233.831,332.800 233.716 C 332.360 233.601,332.000 233.241,332.000 232.916 C 332.000 232.591,331.640 232.231,331.200 232.116 C 330.760 232.001,330.400 231.641,330.400 231.316 C 330.400 230.991,330.040 230.631,329.600 230.516 C 329.160 230.401,328.800 230.041,328.800 229.716 C 328.800 229.391,328.440 229.031,328.000 228.916 C 327.560 228.801,327.200 228.470,327.200 228.180 C 327.200 227.891,326.840 227.540,326.400 227.400 C 325.960 227.260,325.600 226.909,325.600 226.620 C 325.600 226.330,325.240 225.999,324.800 225.884 C 324.360 225.769,324.000 225.388,324.000 225.037 C 324.000 224.687,323.742 224.400,323.427 224.400 C 323.112 224.400,322.740 224.040,322.600 223.600 C 322.460 223.160,322.088 222.800,321.773 222.800 C 321.458 222.800,321.200 222.513,321.200 222.163 C 321.200 221.812,320.840 221.431,320.400 221.316 C 319.960 221.201,319.600 220.841,319.600 220.516 C 319.600 220.191,319.240 219.831,318.800 219.716 C 318.360 219.601,318.000 219.241,318.000 218.916 C 318.000 218.591,317.640 218.231,317.200 218.116 C 316.760 218.001,316.400 217.641,316.400 217.316 C 316.400 216.991,316.040 216.631,315.600 216.516 C 315.160 216.401,314.800 216.041,314.800 215.716 C 314.800 215.391,314.440 215.031,314.000 214.916 C 313.560 214.801,313.200 214.441,313.200 214.116 C 313.200 213.791,312.840 213.431,312.400 213.316 C 311.960 213.201,311.600 212.841,311.600 212.516 C 311.600 212.191,311.240 211.831,310.800 211.716 C 310.360 211.601,310.000 211.270,310.000 210.980 C 310.000 210.691,309.640 210.340,309.200 210.200 C 308.760 210.060,308.400 209.709,308.400 209.420 C 308.400 209.130,308.040 208.799,307.600 208.684 C 307.160 208.569,306.800 208.188,306.800 207.837 C 306.800 207.487,306.542 207.200,306.227 207.200 C 305.912 207.200,305.540 206.840,305.400 206.400 C 305.260 205.960,304.888 205.600,304.573 205.600 C 304.258 205.600,304.000 205.313,304.000 204.963 C 304.000 204.612,303.657 204.235,303.237 204.126 C 302.817 204.016,302.384 203.583,302.274 203.163 C 302.165 202.743,301.809 202.400,301.484 202.400 C 301.159 202.400,300.799 202.040,300.684 201.600 C 300.569 201.160,300.209 200.800,299.884 200.800 C 299.559 200.800,299.199 200.440,299.084 200.000 C 298.969 199.560,298.588 199.200,298.237 199.200 C 297.663 199.200,297.600 197.320,297.600 180.223 L 297.600 161.245 296.711 160.623 C 295.817 159.996,291.911 159.752,290.633 160.243 C 290.063 160.461,289.997 163.928,289.968 195.143 C 289.951 214.204,289.846 229.575,289.735 229.300 C 289.624 229.025,289.278 228.800,288.967 228.800 C 288.600 228.800,288.400 228.363,288.400 227.563 C 288.400 226.662,288.183 226.268,287.600 226.116 C 286.973 225.952,286.800 225.570,286.800 224.353 C 286.800 223.067,286.663 222.800,286.000 222.800 C 285.333 222.800,285.200 222.533,285.200 221.200 C 285.200 219.867,285.067 219.600,284.400 219.600 C 283.733 219.600,283.600 219.333,283.600 218.000 C 283.600 216.667,283.467 216.400,282.800 216.400 C 282.148 216.400,282.000 216.133,282.000 214.963 C 282.000 213.862,281.813 213.476,281.200 213.316 C 280.603 213.160,280.400 212.770,280.400 211.780 C 280.400 210.805,280.188 210.387,279.600 210.200 C 279.005 210.011,278.800 209.595,278.800 208.573 C 278.800 207.467,278.645 207.200,278.000 207.200 C 277.333 207.200,277.200 206.933,277.200 205.600 C 277.200 204.267,277.067 204.000,276.400 204.000 C 275.733 204.000,275.600 203.733,275.600 202.400 C 275.600 201.250,275.433 200.800,275.005 200.800 C 274.620 200.800,274.319 200.235,274.154 199.200 C 273.999 198.235,273.680 197.600,273.349 197.600 C 273.006 197.600,272.800 197.151,272.800 196.403 C 272.800 195.640,272.510 195.026,272.000 194.707 C 271.504 194.397,271.200 193.774,271.200 193.066 C 271.200 192.262,270.964 191.863,270.400 191.716 C 269.794 191.557,269.600 191.170,269.600 190.116 C 269.600 189.062,269.406 188.675,268.800 188.516 C 268.194 188.357,268.000 187.970,268.000 186.916 C 268.000 185.862,267.806 185.475,267.200 185.316 C 266.594 185.157,266.400 184.770,266.400 183.716 C 266.400 182.662,266.206 182.275,265.600 182.116 C 264.994 181.957,264.800 181.570,264.800 180.516 C 264.800 179.462,264.606 179.075,264.000 178.916 C 263.399 178.759,263.200 178.370,263.200 177.353 C 263.200 176.267,263.042 176.000,262.400 176.000 C 261.733 176.000,261.600 175.733,261.600 174.400 C 261.600 173.067,261.467 172.800,260.800 172.800 C 260.133 172.800,260.000 172.533,260.000 171.200 C 260.000 169.867,259.867 169.600,259.200 169.600 C 258.533 169.600,258.400 169.333,258.400 168.000 C 258.400 166.901,258.226 166.400,257.845 166.400 C 257.525 166.400,257.176 165.797,257.022 164.979 C 256.876 164.197,256.496 163.458,256.178 163.336 C 255.860 163.214,255.600 162.788,255.600 162.390 C 255.600 161.238,255.161 160.400,254.557 160.400 C 254.184 160.400,254.000 159.925,254.000 158.963 C 254.000 157.862,253.813 157.476,253.200 157.316 C 252.594 157.157,252.400 156.770,252.400 155.716 C 252.400 154.662,252.206 154.275,251.600 154.116 C 250.994 153.957,250.800 153.570,250.800 152.516 C 250.800 151.462,250.606 151.075,250.000 150.916 C 249.394 150.757,249.200 150.370,249.200 149.316 C 249.200 148.262,249.006 147.875,248.400 147.716 C 247.806 147.561,247.600 147.170,247.600 146.200 C 247.600 145.230,247.394 144.839,246.800 144.684 C 246.187 144.524,246.000 144.138,246.000 143.037 C 246.000 141.867,245.852 141.600,245.200 141.600 C 244.533 141.600,244.400 141.333,244.400 140.000 C 244.400 138.667,244.267 138.400,243.600 138.400 C 242.948 138.400,242.800 138.133,242.800 136.963 C 242.800 135.862,242.613 135.476,242.000 135.316 C 241.397 135.158,241.200 134.770,241.200 133.741 C 241.200 132.938,240.969 132.286,240.639 132.160 C 240.331 132.041,239.966 131.344,239.828 130.611 C 239.691 129.877,239.336 129.184,239.040 129.071 C 238.743 128.957,238.380 128.219,238.232 127.432 C 238.070 126.569,237.733 126.000,237.382 126.000 C 237.033 126.000,236.800 125.612,236.800 125.033 C 236.800 123.652,236.402 122.800,235.757 122.800 C 235.435 122.800,235.200 122.393,235.200 121.833 C 235.200 120.452,234.802 119.600,234.157 119.600 C 233.805 119.600,233.600 119.160,233.600 118.403 C 233.600 117.640,233.310 117.026,232.800 116.707 C 232.318 116.406,232.000 115.774,232.000 115.118 C 232.000 114.438,231.699 113.867,231.200 113.600 C 230.668 113.315,230.400 112.762,230.400 111.948 C 230.400 111.062,230.180 110.668,229.600 110.516 C 228.994 110.357,228.800 109.970,228.800 108.916 C 228.800 107.862,228.606 107.475,228.000 107.316 C 227.394 107.157,227.200 106.770,227.200 105.716 C 227.200 104.662,227.006 104.275,226.400 104.116 C 225.805 103.960,225.600 103.570,225.600 102.596 C 225.600 101.822,225.363 101.195,225.022 101.064 C 224.704 100.942,224.327 100.215,224.183 99.449 C 224.039 98.682,223.679 97.962,223.383 97.849 C 223.087 97.735,222.724 97.003,222.578 96.221 C 222.431 95.439,222.081 94.800,221.800 94.800 C 221.519 94.800,221.169 94.161,221.022 93.379 C 220.876 92.597,220.513 91.865,220.217 91.751 C 219.921 91.638,219.561 90.918,219.417 90.151 C 219.273 89.385,218.896 88.658,218.578 88.536 C 218.260 88.414,218.000 87.884,218.000 87.357 C 218.000 86.831,217.640 86.040,217.200 85.600 C 216.760 85.160,216.400 84.438,216.400 83.996 C 216.400 83.554,216.040 82.884,215.600 82.507 C 215.160 82.130,214.800 81.517,214.800 81.144 C 214.800 80.035,214.352 79.200,213.757 79.200 C 213.405 79.200,213.200 78.760,213.200 78.003 C 213.200 77.240,212.910 76.626,212.400 76.307 C 211.915 76.004,211.600 75.374,211.600 74.707 C 211.600 74.040,211.285 73.410,210.800 73.107 C 210.315 72.804,210.000 72.174,210.000 71.507 C 210.000 70.840,209.685 70.210,209.200 69.907 C 208.710 69.601,208.400 68.974,208.400 68.291 C 208.400 67.677,208.148 67.078,207.839 66.960 C 207.531 66.841,207.164 66.132,207.023 65.383 C 206.883 64.634,206.548 63.882,206.279 63.711 C 206.009 63.540,205.608 62.860,205.387 62.200 C 204.845 60.586,202.372 59.193,201.432 59.973 C 200.398 60.831,200.659 121.415,201.700 122.176 C 202.335 122.640,202.400 123.629,202.400 132.744 L 202.400 142.800 203.953 142.800 C 205.170 142.800,205.552 142.973,205.716 143.600 C 205.900 144.304,206.262 144.400,208.716 144.400 C 211.170 144.400,211.532 144.496,211.716 145.200 C 211.893 145.877,212.262 146.000,214.116 146.000 C 215.970 146.000,216.339 146.123,216.516 146.800 C 216.702 147.511,216.528 147.600,214.946 147.600 C 213.719 147.600,212.900 147.351,212.308 146.800 C 211.653 146.190,210.896 146.000,209.125 146.000 C 207.338 146.000,206.800 145.863,206.800 145.408 C 206.800 144.639,205.322 144.301,203.800 144.721 C 202.223 145.158,201.795 148.016,203.178 148.879 C 203.841 149.293,204.000 149.806,204.000 151.534 C 204.000 153.338,204.126 153.708,204.800 153.884 C 205.504 154.068,205.600 154.430,205.600 156.884 C 205.600 159.338,205.696 159.700,206.400 159.884 C 207.086 160.063,207.200 160.430,207.200 162.447 C 207.200 164.172,207.346 164.800,207.748 164.800 C 208.332 164.800,208.788 166.758,208.796 169.300 C 208.799 170.365,208.974 170.800,209.400 170.800 C 209.862 170.800,210.000 171.315,210.000 173.037 C 210.000 174.938,210.120 175.306,210.800 175.484 C 211.480 175.662,211.601 176.032,211.605 177.947 C 211.612 180.755,211.932 182.000,212.647 182.000 C 213.050 182.000,213.200 182.591,213.200 184.186 C 213.200 185.962,213.350 186.452,214.000 186.800 C 214.650 187.148,214.800 187.638,214.800 189.414 C 214.800 191.333,214.702 191.600,214.000 191.600 C 213.293 191.600,213.200 191.333,213.200 189.296 C 213.200 187.426,213.050 186.898,212.400 186.493 C 211.732 186.075,211.600 185.560,211.600 183.359 C 211.600 181.062,211.498 180.698,210.800 180.516 C 210.125 180.339,210.000 179.970,210.000 178.157 C 210.000 176.440,209.839 175.906,209.200 175.507 C 208.528 175.088,208.400 174.574,208.400 172.304 C 208.400 170.167,208.274 169.600,207.800 169.600 C 207.351 169.600,207.200 169.122,207.199 167.700 C 207.198 166.507,206.900 165.312,206.399 164.490 C 205.959 163.770,205.600 162.480,205.600 161.623 C 205.600 159.678,205.276 158.800,204.557 158.800 C 204.143 158.800,204.000 158.185,204.000 156.400 C 204.000 154.533,203.822 153.822,203.200 153.200 C 202.760 152.760,202.400 152.040,202.400 151.600 C 202.400 150.933,202.133 150.800,200.800 150.800 L 199.200 150.800 199.200 152.400 C 199.200 153.733,199.067 154.000,198.400 154.000 C 197.689 154.000,197.600 154.267,197.600 156.400 C 197.600 158.204,197.459 158.800,197.033 158.800 C 196.722 158.800,196.376 159.025,196.265 159.300 C 196.154 159.575,196.049 158.855,196.032 157.700 C 196.008 156.105,196.192 155.408,196.800 154.800 C 197.422 154.178,197.600 153.467,197.600 151.600 C 197.600 149.447,197.684 149.200,198.420 149.200 C 199.165 149.200,199.229 148.991,199.120 146.900 L 199.000 144.600 197.418 144.471 C 195.161 144.287,193.200 144.727,193.200 145.418 C 193.200 145.848,192.688 146.000,191.237 146.000 C 189.472 146.000,189.296 145.920,189.484 145.200 C 189.663 144.514,190.030 144.400,192.047 144.400 C 194.133 144.400,194.400 144.309,194.400 143.600 C 194.400 142.895,194.674 142.797,196.700 142.778 C 200.115 142.745,200.970 141.554,200.716 137.181 C 200.590 134.991,200.327 133.783,199.869 133.276 C 199.261 132.605,199.195 129.389,199.102 95.771 L 199.000 59.000 197.734 58.877 C 196.747 58.781,196.411 58.935,196.207 59.577 M188.516 146.800 C 188.335 147.493,187.970 147.600,185.791 147.600 C 183.472 147.600,183.291 147.537,183.484 146.800 C 183.665 146.107,184.030 146.000,186.209 146.000 C 188.528 146.000,188.709 146.063,188.516 146.800 M182.307 148.400 C 181.909 149.038,181.374 149.200,179.666 149.200 C 177.862 149.200,177.492 149.326,177.316 150.000 C 177.020 151.131,172.260 151.230,172.475 150.100 C 172.580 149.547,173.145 149.357,175.162 149.197 C 176.999 149.050,177.840 148.798,178.156 148.297 C 178.483 147.778,179.135 147.600,180.701 147.600 C 182.707 147.600,182.783 147.638,182.307 148.400 M222.800 148.400 C 222.800 149.109,223.067 149.200,225.153 149.200 C 227.170 149.200,227.537 149.314,227.716 150.000 C 227.904 150.720,227.728 150.800,225.963 150.800 C 224.533 150.800,223.783 150.583,223.200 150.000 C 222.598 149.398,221.867 149.200,220.247 149.200 C 218.430 149.200,218.061 149.075,217.884 148.400 C 217.691 147.661,217.872 147.600,220.237 147.600 C 222.533 147.600,222.800 147.683,222.800 148.400 M171.316 151.600 C 171.137 152.286,170.770 152.400,168.753 152.400 L 166.400 152.400 166.405 200.500 C 166.411 252.308,166.350 250.400,168.000 250.400 C 169.201 250.400,169.584 249.665,169.595 247.347 C 169.599 246.432,169.816 246.037,170.400 245.884 C 171.139 245.691,171.200 245.872,171.200 248.237 C 171.200 250.533,171.117 250.800,170.400 250.800 C 169.691 250.800,169.600 251.067,169.600 253.153 C 169.600 255.186,169.489 255.536,168.784 255.720 C 168.029 255.918,167.977 256.196,168.084 259.467 L 168.200 263.000 200.356 263.102 C 223.780 263.177,232.660 263.082,233.056 262.753 C 233.931 262.027,233.759 258.559,232.800 257.600 C 232.194 256.994,232.000 256.267,232.000 254.600 C 232.000 252.667,231.903 252.400,231.200 252.400 C 230.475 252.400,230.400 252.133,230.400 249.563 C 230.400 247.062,230.305 246.700,229.600 246.516 C 228.914 246.337,228.800 245.970,228.800 243.953 C 228.800 241.867,228.709 241.600,228.000 241.600 C 227.271 241.600,227.203 241.344,227.232 238.700 C 227.249 237.105,227.354 236.025,227.465 236.300 C 227.576 236.575,227.901 236.800,228.187 236.800 C 228.544 236.800,228.760 237.628,228.875 239.448 C 228.995 241.333,229.240 242.240,229.722 242.592 C 230.179 242.927,230.402 243.661,230.406 244.844 C 230.414 247.113,230.812 247.695,232.243 247.532 L 233.400 247.400 233.502 199.900 L 233.603 152.400 231.202 152.400 C 229.067 152.400,228.800 152.311,228.800 151.600 C 228.800 150.889,229.067 150.800,231.200 150.800 C 233.129 150.800,233.600 150.925,233.600 151.437 C 233.600 151.788,233.960 152.169,234.400 152.284 C 235.195 152.492,235.200 152.830,235.200 206.447 C 235.200 259.867,235.208 260.408,236.000 261.200 C 236.440 261.640,236.800 262.270,236.800 262.600 C 236.800 263.124,239.067 263.200,254.800 263.200 L 272.800 263.200 272.800 282.800 C 272.800 302.101,272.788 302.400,272.004 302.400 C 271.222 302.400,271.206 302.068,271.104 283.700 L 271.000 265.000 200.700 264.899 L 130.400 264.798 130.400 283.599 C 130.400 302.133,130.389 302.400,129.600 302.400 C 128.811 302.400,128.800 302.133,128.800 282.812 L 128.800 263.224 146.367 263.112 C 156.029 263.050,164.084 262.850,164.267 262.667 C 164.450 262.483,164.647 237.598,164.704 207.367 C 164.803 155.336,164.846 152.400,165.508 152.400 C 165.893 152.400,166.432 152.040,166.707 151.600 C 167.107 150.961,167.640 150.800,169.366 150.800 C 171.328 150.800,171.506 150.873,171.316 151.600 M196.000 162.353 C 196.000 164.370,195.886 164.737,195.200 164.916 C 194.520 165.094,194.400 165.462,194.400 167.363 C 194.400 168.994,194.251 169.600,193.850 169.600 C 193.275 169.600,192.800 171.266,192.800 173.279 C 192.800 173.927,192.530 174.727,192.200 175.057 C 191.804 175.453,191.600 176.449,191.600 177.982 C 191.600 179.970,191.484 180.337,190.800 180.516 C 190.110 180.696,190.000 181.062,190.000 183.163 C 190.000 184.979,189.858 185.600,189.443 185.600 C 188.659 185.600,188.400 186.503,188.400 189.233 C 188.400 191.333,188.310 191.600,187.600 191.600 C 186.891 191.600,186.800 191.867,186.800 193.953 C 186.800 195.970,186.686 196.337,186.000 196.516 C 184.914 196.800,184.807 193.376,185.878 192.592 C 186.359 192.241,186.604 191.337,186.722 189.483 C 186.859 187.339,187.024 186.835,187.644 186.672 C 188.264 186.511,188.400 186.098,188.400 184.382 C 188.400 182.868,188.589 182.150,189.084 181.788 C 189.587 181.420,189.812 180.533,189.930 178.444 C 190.039 176.508,190.251 175.600,190.594 175.600 C 190.909 175.600,191.173 174.823,191.297 173.533 C 191.418 172.270,191.749 171.280,192.148 170.989 C 192.628 170.638,192.800 169.865,192.800 168.059 C 192.800 166.040,192.941 165.519,193.600 165.107 C 194.250 164.702,194.400 164.174,194.400 162.304 C 194.400 160.267,194.493 160.000,195.200 160.000 C 195.909 160.000,196.000 160.267,196.000 162.353 M216.400 195.150 C 216.400 196.974,216.554 197.503,217.200 197.907 C 217.839 198.307,218.000 198.840,218.000 200.566 C 218.000 202.528,217.927 202.706,217.200 202.516 C 216.514 202.337,216.400 201.970,216.400 199.953 C 216.400 197.867,216.309 197.600,215.600 197.600 C 214.883 197.600,214.800 197.333,214.800 195.037 C 214.800 192.672,214.861 192.491,215.600 192.684 C 216.281 192.862,216.400 193.230,216.400 195.150 M185.200 199.800 C 185.200 202.133,185.118 202.400,184.400 202.400 C 183.691 202.400,183.600 202.667,183.600 204.753 C 183.600 206.770,183.486 207.137,182.800 207.316 C 182.089 207.502,182.000 207.328,182.000 205.763 C 182.000 204.533,182.242 203.758,182.800 203.200 C 183.420 202.580,183.600 201.867,183.600 200.029 C 183.600 198.108,183.733 197.624,184.300 197.476 C 184.685 197.375,185.045 197.272,185.100 197.246 C 185.155 197.221,185.200 198.370,185.200 199.800 M218.967 203.843 C 219.436 204.023,219.600 204.645,219.600 206.243 C 219.600 207.867,219.798 208.598,220.400 209.200 C 221.022 209.822,221.200 210.533,221.200 212.400 C 221.200 214.533,221.289 214.800,222.000 214.800 C 222.718 214.800,222.800 215.067,222.800 217.397 C 222.800 219.560,222.933 220.077,223.600 220.493 C 224.250 220.898,224.400 221.426,224.400 223.296 C 224.400 224.975,224.548 225.600,224.945 225.600 C 225.330 225.600,225.554 226.389,225.705 228.276 C 225.850 230.074,226.130 231.106,226.560 231.420 C 227.597 232.179,227.457 235.592,226.400 235.316 C 225.714 235.137,225.600 234.770,225.600 232.753 C 225.600 230.928,225.465 230.400,225.000 230.400 C 224.607 230.400,224.400 230.006,224.400 229.256 C 224.400 226.771,223.885 224.400,223.346 224.400 C 222.950 224.400,222.800 223.786,222.800 222.163 C 222.800 220.304,222.672 219.892,222.043 219.727 C 221.412 219.562,221.260 219.063,221.128 216.728 C 221.008 214.613,220.802 213.833,220.285 213.544 C 219.769 213.255,219.600 212.622,219.600 210.980 C 219.600 209.067,219.502 208.800,218.800 208.800 C 218.082 208.800,218.000 208.533,218.000 206.200 C 218.000 204.770,218.075 203.600,218.167 203.600 C 218.259 203.600,218.619 203.709,218.967 203.843 M182.000 210.753 C 182.000 212.770,181.886 213.137,181.200 213.316 C 180.520 213.494,180.400 213.862,180.400 215.763 C 180.400 217.426,180.255 218.000,179.833 218.000 C 179.522 218.000,179.176 218.225,179.065 218.500 C 178.954 218.775,178.849 217.877,178.832 216.503 C 178.805 214.420,178.932 213.924,179.600 213.507 C 180.250 213.102,180.400 212.574,180.400 210.704 C 180.400 208.667,180.493 208.400,181.200 208.400 C 181.909 208.400,182.000 208.667,182.000 210.753 M178.022 223.669 C 177.422 224.312,177.200 225.086,177.200 226.531 C 177.200 227.840,176.994 228.662,176.593 228.956 C 176.250 229.207,175.873 230.355,175.726 231.596 C 175.583 232.803,175.226 234.031,174.933 234.324 C 174.600 234.658,174.400 235.820,174.400 237.429 C 174.400 239.733,174.317 240.000,173.600 240.000 C 172.891 240.000,172.800 240.267,172.800 242.353 C 172.800 244.370,172.686 244.737,172.000 244.916 C 170.914 245.200,170.807 241.776,171.878 240.992 C 172.360 240.640,172.605 239.733,172.725 237.848 C 172.837 236.076,173.060 235.200,173.397 235.200 C 173.923 235.200,174.400 233.485,174.400 231.593 C 174.400 230.978,174.667 230.383,175.000 230.255 C 175.460 230.079,175.600 229.321,175.600 227.013 C 175.600 224.267,175.671 224.000,176.400 224.000 C 177.102 224.000,177.200 223.733,177.200 221.829 C 177.200 220.081,177.336 219.632,177.900 219.522 C 179.013 219.304,179.107 222.504,178.022 223.669 " stroke="none" fill="#040404" fill-rule="evenodd"></path><path id="path1" d="" stroke="none" fill="#080404" fill-rule="evenodd"></path><path id="path2" d="" stroke="none" fill="#080404" fill-rule="evenodd"></path><path id="path3" d="" stroke="none" fill="#080404" fill-rule="evenodd"></path><path id="path4" d="" stroke="none" fill="#080404" fill-rule="evenodd"></path></g></svg>